# xmcd
#
# Track frame offsets: 
#        150
#        7955
#        27045
#        43397
#        63462
#        90307
#        109885
#        132367
#        150477
#        168075
#        190147
#        218605
#
# Disc length: 3099 seconds
#
# Revision: 7
# Processed by: cddbd v1.5.2PL0 Copyright (c) Steve Scherf et al.
# Submitted via: ExactAudioCopy v0.99pb3
#
DISCID=910c190c
DTITLE=Terence Trent D'Arby - Terence Trent D'Arby's Neither Fish Nor 
DTITLE=Flesh
DYEAR=1989
DGENRE=Rock
TTITLE0=Declaration: Neither Fish Nor Flesh
TTITLE1=I Have Faith in these Desolate Times
TTITLE2=It Feels So Good to Love Someone Like You
TTITLE3=To Know Someone Deeply is to Know Someone Softly
TTITLE4=I'll Be Alright
TTITLE5=Billy Don't Fall
TTITLE6=This Side of Love
TTITLE7=Attracted To You
TTITLE8=Roly Poly
TTITLE9=You Will Pay Tomorrow
TTITLE10=I Dont Want to Bring Your Gods Down
TTITLE11=And I Need to Be with Someone Tonight
EXTD=YEAR: 1989
EXTT0=
EXTT1=
EXTT2=
EXTT3=
EXTT4=
EXTT5=
EXTT6=
EXTT7=
EXTT8=
EXTT9=
EXTT10=
EXTT11=
PLAYORDER=
